<?xml version="1.0" encoding="utf-8"?>
<!-- Generator: Adobe Illustrator 16.0.0, SVG Export Plug-In . SVG Version: 6.00 Build 0)  -->
<!DOCTYPE svg PUBLIC "-//W3C//DTD SVG 1.1//EN" "http://www.w3.org/Graphics/SVG/1.1/DTD/svg11.dtd">
<svg version="1.1"
	 id="svg3857" xmlns:svg="http://www.w3.org/2000/svg" sodipodi:docname="Wikipedia-logo.svg" inkscape:version="0.47 r22583" xmlns:inkscape="http://www.inkscape.org/namespaces/inkscape" xmlns:sodipodi="http://sodipodi.sourceforge.net/DTD/sodipodi-0.dtd" xmlns:rdf="http://www.w3.org/1999/02/22-rdf-syntax-ns#" xmlns:cc="http://creativecommons.org/ns#" xmlns:dc="http://purl.org/dc/elements/1.1/"
	 xmlns="http://www.w3.org/2000/svg" xmlns:xlink="http://www.w3.org/1999/xlink" x="0px" y="0px" width="135px" height="85.578px"
	 viewBox="0 57.36 135 85.578" enable-background="new 0 57.36 135 85.578" xml:space="preserve">
<defs>
	
	
		<inkscape:perspective  inkscape:persp3d-origin="67.5 : 51.666667 : 1" inkscape:vp_x="0 : 77.5 : 1" inkscape:vp_y="0 : 1000 : 0" inkscape:vp_z="135 : 77.5 : 1" sodipodi:type="inkscape:persp3d" id="perspective4854">
		</inkscape:perspective>
	
		<inkscape:perspective  inkscape:persp3d-origin="0.5 : 0.33333333 : 1" inkscape:vp_x="0 : 0.5 : 1" inkscape:vp_y="0 : 1000 : 0" inkscape:vp_z="1 : 0.5 : 1" sodipodi:type="inkscape:persp3d" id="perspective10537">
		</inkscape:perspective>
</defs>
<sodipodi:namedview  inkscape:cx="92.577797" borderopacity="1" bordercolor="#666666" gridtolerance="10" inkscape:zoom="5.6568543" showguides="true" inkscape:cy="145.31128" guidetolerance="10" objecttolerance="10" pagecolor="#ffffff" showgrid="false" id="namedview4848" inkscape:window-maximized="0" inkscape:current-layer="svg3857" inkscape:window-width="1198" inkscape:window-x="32" inkscape:pageshadow="2" inkscape:window-y="24" inkscape:window-height="730" inkscape:pageopacity="0" inkscape:guide-bbox="true">
	<sodipodi:guide  position="0,140" orientation="0,1" id="globe_top"></sodipodi:guide>
	<sodipodi:guide  position="16,0" orientation="1,0" id="globe_left"></sodipodi:guide>
	<sodipodi:guide  position="119,0" orientation="1,0" id="globe_right"></sodipodi:guide>
	<sodipodi:guide  position="0,47" orientation="0,1" id="globe_bottom"></sodipodi:guide>
	<sodipodi:guide  position="8,40" orientation="0,1" id="wordmark_top"></sodipodi:guide>
	<sodipodi:guide  position="8,22.5" orientation="0,1" id="wordmark_bottom"></sodipodi:guide>
	<sodipodi:guide  position="0,17" orientation="0,1" id="subtitle_top"></sodipodi:guide>
	<sodipodi:guide  position="0,8" orientation="0,1" id="subtitle_bottom"></sodipodi:guide>
	<sodipodi:guide  position="8,40" orientation="1,0" id="wordmark_left"></sodipodi:guide>
	<sodipodi:guide  position="127,40" orientation="1,0" id="wordmark_right"></sodipodi:guide>
</sodipodi:namedview>
<path id="path3898" d="M52.714,75.063c0,0-1.8-3.664-2.415-4.881c-4.094-8.108-4.005-8.54-8.146-9.091
	c-1.157-0.153-1.757-0.298-1.757-0.873v-2.57l0.348-0.249c7.478-0.01,24.119-0.01,24.119-0.01l0.638,0.212v2.56
	c0,0.585-0.417,0.882-1.266,0.882l-1.748,0.25c-4.418,0.345-3.696,2.147-0.763,7.997l27.877,57.03l0.949,0.259l24.747-58.727
	c0.857-2.37,0.723-4.047-0.38-5.036c-1.107-0.954-1.889-1.529-4.756-1.649l-2.321-0.11c-0.287,0-0.556-0.1-0.815-0.302
	c-0.259-0.183-0.392-0.421-0.392-0.709v-2.445l0.354-0.25c6.972,0,27.959,0,27.959,0l0.283,0.25v2.445
	c0,0.661-0.373,0.997-1.122,0.997c-3.663,0.164-6.376,0.959-8.137,2.379c-1.759,1.429-3.137,3.389-4.124,5.955
	c0,0-22.756,52.083-30.543,69.401c-2.982,5.677-5.911,5.154-8.491-0.162C77.366,127.399,62.033,93.38,62.033,93.38L52.714,75.063z"
	/>
<path id="path3900" d="M97.378,57.36c0,0-15.727-0.047-22.73,0l-0.35,0.25v2.436c0,0.297,0.129,0.537,0.384,0.719
	c0.262,0.192,0.525,0.287,0.811,0.287l1.124,0.125c2.862,0.11,4.181,0.868,4.574,1.333c0.682,0.834,1.017,1.736-0.637,5.346
	l-29.362,58.568l-0.769-0.2c0,0-21.031-44.343-27.118-59.183c-0.632-1.53-0.918-2.675-0.918-3.381c0-1.505,1.359-2.32,4.081-2.431
	l3.172-0.134c0.839,0,1.265-0.321,1.265-0.998v-2.431l-0.285-0.253c0,0-25.188-0.028-30.392,0l-0.286,0.253v2.557
	c0,0.46,0.585,0.742,1.76,0.872c3.196,0.172,5.296,0.686,6.307,1.53c1.007,0.863,2.074,3.03,3.486,6.416
	c7.646,18.364,23.888,51.132,31.797,69.794c2.277,5.097,5.14,5.888,8.616-0.154c6.02-11.162,22.342-45.263,22.342-45.263
	l12.857-24.042c1.496-2.542,2.934-4.805,3.668-5.854c1.343-1.933,2.096-2.292,5.759-2.465c0.743,0,1.122-0.33,1.122-1.006v-2.436
	L97.378,57.36z"/>
</svg>
